<?xml version="1.0" encoding="UTF-8" standalone="no"?>
<!DOCTYPE svg PUBLIC "-//W3C//DTD SVG 1.1//EN"
 "http://www.w3.org/Graphics/SVG/1.1/DTD/svg11.dtd">
<!-- Generated by graphviz version 12.1.2 (20240928.0832)
 -->
<!-- Title: firebase::app_check::AppCheckProviderFactory Pages: 1 -->
<svg width="346pt" height="190pt"
 viewBox="0.00 0.00 346.00 190.00" xmlns="http://www.w3.org/2000/svg" xmlns:xlink="http://www.w3.org/1999/xlink">
<g id="graph0" class="graph" transform="scale(1 1) rotate(0) translate(4 186)">
<title>firebase::app_check::AppCheckProviderFactory</title>
<!-- Node1 -->
<g id="Node000001" class="node">
<title>Node1</title>
<g id="a_Node000001"><a xlink:title="Interface for a factory that generates AppCheckProviders.">
<polygon fill="#999999" stroke="#666666" points="136.75,-107 0,-107 0,-75 136.75,-75 136.75,-107"/>
<text text-anchor="start" x="8" y="-93.5" font-family="Helvetica,sans-Serif" font-size="10.00">firebase::app_check</text>
<text text-anchor="middle" x="68.38" y="-81.5" font-family="Helvetica,sans-Serif" font-size="10.00">::AppCheckProviderFactory</text>
</a>
</g>
</g>
<!-- Node2 -->
<g id="Node000002" class="node">
<title>Node2</title>
<g id="a_Node000002"><a xlink:href="classfirebase_1_1app__check_1_1_app_attest_provider_factory.html" target="_top" xlink:title=" ">
<polygon fill="white" stroke="#666666" points="322.62,-182 188.12,-182 188.12,-150 322.62,-150 322.62,-182"/>
<text text-anchor="start" x="196.12" y="-168.5" font-family="Helvetica,sans-Serif" font-size="10.00">firebase::app_check</text>
<text text-anchor="middle" x="255.38" y="-156.5" font-family="Helvetica,sans-Serif" font-size="10.00">::AppAttestProviderFactory</text>
</a>
</g>
</g>
<!-- Node1&#45;&gt;Node2 -->
<g id="edge1_Node000001_Node000002" class="edge">
<title>Node1&#45;&gt;Node2</title>
<g id="a_edge1_Node000001_Node000002"><a xlink:title=" ">
<path fill="none" stroke="#63b8ff" d="M110.29,-112.58C129.03,-121.99 151.71,-132.75 172.75,-141 180.48,-144.03 188.73,-146.93 196.91,-149.62"/>
<polygon fill="#63b8ff" stroke="#63b8ff" points="111.88,-109.46 101.38,-108.05 108.71,-115.7 111.88,-109.46"/>
</a>
</g>
</g>
<!-- Node3 -->
<g id="Node000003" class="node">
<title>Node3</title>
<g id="a_Node000003"><a xlink:href="classfirebase_1_1app__check_1_1_debug_app_check_provider_factory.html" target="_top" xlink:title=" ">
<polygon fill="white" stroke="#666666" points="338,-132 172.75,-132 172.75,-100 338,-100 338,-132"/>
<text text-anchor="start" x="180.75" y="-118.5" font-family="Helvetica,sans-Serif" font-size="10.00">firebase::app_check</text>
<text text-anchor="middle" x="255.38" y="-106.5" font-family="Helvetica,sans-Serif" font-size="10.00">::DebugAppCheckProviderFactory</text>
</a>
</g>
</g>
<!-- Node1&#45;&gt;Node3 -->
<g id="edge2_Node000001_Node000003" class="edge">
<title>Node1&#45;&gt;Node3</title>
<g id="a_edge2_Node000001_Node000003"><a xlink:title=" ">
<path fill="none" stroke="#63b8ff" d="M148.35,-101.67C156.32,-102.75 164.42,-103.84 172.41,-104.92"/>
<polygon fill="#63b8ff" stroke="#63b8ff" points="149.09,-98.24 138.71,-100.37 148.15,-105.18 149.09,-98.24"/>
</a>
</g>
</g>
<!-- Node4 -->
<g id="Node000004" class="node">
<title>Node4</title>
<g id="a_Node000004"><a xlink:href="classfirebase_1_1app__check_1_1_device_check_provider_factory.html" target="_top" xlink:title=" ">
<polygon fill="white" stroke="#666666" points="330.5,-82 180.25,-82 180.25,-50 330.5,-50 330.5,-82"/>
<text text-anchor="start" x="188.25" y="-68.5" font-family="Helvetica,sans-Serif" font-size="10.00">firebase::app_check</text>
<text text-anchor="middle" x="255.38" y="-56.5" font-family="Helvetica,sans-Serif" font-size="10.00">::DeviceCheckProviderFactory</text>
</a>
</g>
</g>
<!-- Node1&#45;&gt;Node4 -->
<g id="edge3_Node000001_Node000004" class="edge">
<title>Node1&#45;&gt;Node4</title>
<g id="a_edge3_Node000001_Node000004"><a xlink:title=" ">
<path fill="none" stroke="#63b8ff" d="M148.45,-80.31C158.91,-78.9 169.61,-77.45 180,-76.05"/>
<polygon fill="#63b8ff" stroke="#63b8ff" points="148.15,-76.82 138.71,-81.63 149.09,-83.76 148.15,-76.82"/>
</a>
</g>
</g>
<!-- Node5 -->
<g id="Node000005" class="node">
<title>Node5</title>
<g id="a_Node000005"><a xlink:href="classfirebase_1_1app__check_1_1_play_integrity_provider_factory.html" target="_top" xlink:title=" ">
<polygon fill="white" stroke="#666666" points="328.25,-32 182.5,-32 182.5,0 328.25,0 328.25,-32"/>
<text text-anchor="start" x="190.5" y="-18.5" font-family="Helvetica,sans-Serif" font-size="10.00">firebase::app_check</text>
<text text-anchor="middle" x="255.38" y="-6.5" font-family="Helvetica,sans-Serif" font-size="10.00">::PlayIntegrityProviderFactory</text>
</a>
</g>
</g>
<!-- Node1&#45;&gt;Node5 -->
<g id="edge4_Node000001_Node000005" class="edge">
<title>Node1&#45;&gt;Node5</title>
<g id="a_edge4_Node000001_Node000005"><a xlink:title=" ">
<path fill="none" stroke="#63b8ff" d="M110.29,-69.42C129.03,-60.01 151.71,-49.25 172.75,-41 180.48,-37.97 188.73,-35.07 196.91,-32.38"/>
<polygon fill="#63b8ff" stroke="#63b8ff" points="108.71,-66.3 101.38,-73.95 111.88,-72.54 108.71,-66.3"/>
</a>
</g>
</g>
</g>
</svg>
