<?xml version="1.0" encoding="UTF-8" standalone="no"?>
<!DOCTYPE svg PUBLIC "-//W3C//DTD SVG 1.1//EN"
 "http://www.w3.org/Graphics/SVG/1.1/DTD/svg11.dtd">
<!-- Generated by graphviz version 12.1.2 (20240928.0832)
 -->
<!-- Title: WirtualnySdk Pages: 1 -->
<svg width="343pt" height="112pt"
 viewBox="0.00 0.00 342.72 112.00" xmlns="http://www.w3.org/2000/svg" xmlns:xlink="http://www.w3.org/1999/xlink">
<g id="graph0" class="graph" transform="scale(1 1) rotate(0) translate(4 108)">
<title>WirtualnySdk</title>
<!-- Node1 -->
<g id="Node000001" class="node">
<title>Node1</title>
<g id="a_Node000001"><a xlink:title=" ">
<polygon fill="#999999" stroke="#666666" points="196.75,-22 122.25,-22 122.25,-2 196.75,-2 196.75,-22"/>
<text text-anchor="middle" x="159.5" y="-8.5" font-family="Helvetica,sans-Serif" font-size="10.00">WirtualnySdk</text>
</a>
</g>
</g>
<!-- Node1&#45;&gt;Node1 -->
<g id="edge2_Node000001_Node000001" class="edge">
<title>Node1&#45;&gt;Node1</title>
<g id="a_edge2_Node000001_Node000001"><a xlink:title=" ">
<path fill="none" stroke="#9a32cd" stroke-dasharray="5,2" d="M208.49,-17.98C212.36,-16.67 214.75,-14.68 214.75,-12 214.75,-7.24 207.19,-4.64 197.2,-4.19"/>
<polygon fill="#9a32cd" stroke="#9a32cd" points="208.01,-14.51 198.7,-19.56 209.13,-21.42 208.01,-14.51"/>
</a>
</g>
<text text-anchor="middle" x="237.25" y="-14.5" font-family="Helvetica,sans-Serif" font-size="10.00" fill="grey"> _instance</text>
<text text-anchor="middle" x="237.25" y="-2.5" font-family="Helvetica,sans-Serif" font-size="10.00" fill="grey">instance</text>
</g>
<!-- Node2 -->
<g id="Node000002" class="node">
<title>Node2</title>
<g id="a_Node000002"><a xlink:href="class_wirtualny_sdk_config.html" target="_top" xlink:title=" ">
<polygon fill="white" stroke="#666666" points="103,-104 0,-104 0,-84 103,-84 103,-104"/>
<text text-anchor="middle" x="51.5" y="-90.5" font-family="Helvetica,sans-Serif" font-size="10.00">WirtualnySdkConfig</text>
</a>
</g>
</g>
<!-- Node2&#45;&gt;Node1 -->
<g id="edge1_Node000001_Node000002" class="edge">
<title>Node2&#45;&gt;Node1</title>
<g id="a_edge1_Node000001_Node000002"><a xlink:title=" ">
<path fill="none" stroke="#9a32cd" stroke-dasharray="5,2" d="M73.56,-76.66C95.59,-60.34 128.69,-35.82 146.7,-22.48"/>
<polygon fill="#9a32cd" stroke="#9a32cd" points="71.48,-73.84 65.53,-82.61 75.65,-79.47 71.48,-73.84"/>
</a>
</g>
<text text-anchor="middle" x="132.97" y="-50.5" font-family="Helvetica,sans-Serif" font-size="10.00" fill="grey"> config</text>
</g>
<!-- Node3 -->
<g id="Node000003" class="node">
<title>Node3</title>
<g id="a_Node000003"><a xlink:href="class_wirtualny_auth.html" target="_top" xlink:title=" ">
<polygon fill="white" stroke="#666666" points="198.25,-104 120.75,-104 120.75,-84 198.25,-84 198.25,-104"/>
<text text-anchor="middle" x="159.5" y="-90.5" font-family="Helvetica,sans-Serif" font-size="10.00">WirtualnyAuth</text>
</a>
</g>
</g>
<!-- Node3&#45;&gt;Node1 -->
<g id="edge3_Node000001_Node000003" class="edge">
<title>Node3&#45;&gt;Node1</title>
<g id="a_edge3_Node000001_Node000003"><a xlink:title=" ">
<path fill="none" stroke="#9a32cd" stroke-dasharray="5,2" d="M159.5,-72.06C159.5,-56.01 159.5,-34.62 159.5,-22.48"/>
<polygon fill="#9a32cd" stroke="#9a32cd" points="156,-72 159.5,-82 163,-72 156,-72"/>
</a>
</g>
<text text-anchor="middle" x="173" y="-56.5" font-family="Helvetica,sans-Serif" font-size="10.00" fill="grey"> _auth</text>
<text text-anchor="middle" x="173" y="-44.5" font-family="Helvetica,sans-Serif" font-size="10.00" fill="grey">auth</text>
</g>
<!-- Node4 -->
<g id="Node000004" class="node">
<title>Node4</title>
<g id="a_Node000004"><a xlink:href="class_wirtualny_notifications.html" target="_top" xlink:title=" ">
<polygon fill="white" stroke="#666666" points="328.5,-104 216.5,-104 216.5,-84 328.5,-84 328.5,-104"/>
<text text-anchor="middle" x="272.5" y="-90.5" font-family="Helvetica,sans-Serif" font-size="10.00">WirtualnyNotifications</text>
</a>
</g>
</g>
<!-- Node4&#45;&gt;Node1 -->
<g id="edge4_Node000001_Node000004" class="edge">
<title>Node4&#45;&gt;Node1</title>
<g id="a_edge4_Node000001_Node000004"><a xlink:title=" ">
<path fill="none" stroke="#9a32cd" stroke-dasharray="5,2" d="M249.73,-76.88C226.68,-60.56 191.82,-35.88 172.89,-22.48"/>
<polygon fill="#9a32cd" stroke="#9a32cd" points="247.67,-79.71 257.86,-82.63 251.72,-74 247.67,-79.71"/>
</a>
</g>
<text text-anchor="middle" x="283.72" y="-56.5" font-family="Helvetica,sans-Serif" font-size="10.00" fill="grey"> _wirtualnyNotifications</text>
<text text-anchor="middle" x="283.72" y="-44.5" font-family="Helvetica,sans-Serif" font-size="10.00" fill="grey">notifications</text>
</g>
</g>
</svg>
