<?xml version="1.0" encoding="UTF-8" standalone="no"?>
<!DOCTYPE svg PUBLIC "-//W3C//DTD SVG 1.1//EN"
 "http://www.w3.org/Graphics/SVG/1.1/DTD/svg11.dtd">
<!-- Generated by graphviz version 12.1.2 (20240928.0832)
 -->
<!-- Title: firebase::gma::AdView Pages: 1 -->
<svg width="419pt" height="131pt"
 viewBox="0.00 0.00 418.75 131.00" xmlns="http://www.w3.org/2000/svg" xmlns:xlink="http://www.w3.org/1999/xlink">
<g id="graph0" class="graph" transform="scale(1 1) rotate(0) translate(4 127)">
<title>firebase::gma::AdView</title>
<!-- Node1 -->
<g id="Node000001" class="node">
<title>Node1</title>
<g id="a_Node000001"><a xlink:title="Loads and displays Google Mobile Ads AdView ads.">
<polygon fill="#999999" stroke="#666666" points="410.75,-76 295.75,-76 295.75,-56 410.75,-56 410.75,-76"/>
<text text-anchor="middle" x="353.25" y="-62.5" font-family="Helvetica,sans-Serif" font-size="10.00">firebase::gma::AdView</text>
</a>
</g>
</g>
<!-- Node2 -->
<g id="Node000002" class="node">
<title>Node2</title>
<g id="a_Node000002"><a xlink:href="classfirebase_1_1gma_1_1_ad_listener.html" target="_top" xlink:title="A listener for receiving notifications during the lifecycle of a BannerAd.">
<polygon fill="white" stroke="#666666" points="141.62,-123 13.88,-123 13.88,-103 141.62,-103 141.62,-123"/>
<text text-anchor="middle" x="77.75" y="-109.5" font-family="Helvetica,sans-Serif" font-size="10.00">firebase::gma::AdListener</text>
</a>
</g>
</g>
<!-- Node2&#45;&gt;Node1 -->
<g id="edge1_Node000001_Node000002" class="edge">
<title>Node2&#45;&gt;Node1</title>
<g id="a_edge1_Node000001_Node000002"><a xlink:title=" ">
<path fill="none" stroke="#9a32cd" stroke-dasharray="5,2" d="M153.43,-108.54C191.03,-105.34 237.14,-99.95 277.75,-91 294,-87.42 311.69,-81.57 325.74,-76.43"/>
<polygon fill="#9a32cd" stroke="#9a32cd" points="153.24,-105.05 143.56,-109.34 153.81,-112.02 153.24,-105.05"/>
</a>
</g>
<text text-anchor="middle" x="225.62" y="-109.01" font-family="Helvetica,sans-Serif" font-size="10.00" fill="grey"> ad_listener_</text>
</g>
<!-- Node3 -->
<g id="Node000003" class="node">
<title>Node3</title>
<g id="a_Node000003"><a xlink:href="classfirebase_1_1gma_1_1_ad_view_bounding_box_listener.html" target="_top" xlink:title=" ">
<polygon fill="white" stroke="#666666" points="155.5,-82 0,-82 0,-50 155.5,-50 155.5,-82"/>
<text text-anchor="start" x="8" y="-68.5" font-family="Helvetica,sans-Serif" font-size="10.00">firebase::gma::AdViewBounding</text>
<text text-anchor="middle" x="77.75" y="-56.5" font-family="Helvetica,sans-Serif" font-size="10.00">BoxListener</text>
</a>
</g>
</g>
<!-- Node3&#45;&gt;Node1 -->
<g id="edge2_Node000001_Node000003" class="edge">
<title>Node3&#45;&gt;Node1</title>
<g id="a_edge2_Node000001_Node000003"><a xlink:title=" ">
<path fill="none" stroke="#9a32cd" stroke-dasharray="5,2" d="M167.06,-66C209.18,-66 258.34,-66 295.42,-66"/>
<polygon fill="#9a32cd" stroke="#9a32cd" points="167.18,-62.5 157.18,-66 167.18,-69.5 167.18,-62.5"/>
</a>
</g>
<text text-anchor="start" x="173.5" y="-80.5" font-family="Helvetica,sans-Serif" font-size="10.00" fill="grey"> ad_view_bounding_box</text>
<text text-anchor="middle" x="225.62" y="-68.5" font-family="Helvetica,sans-Serif" font-size="10.00" fill="grey">_listener_</text>
</g>
<!-- Node4 -->
<g id="Node000004" class="node">
<title>Node4</title>
<g id="a_Node000004"><a xlink:href="classfirebase_1_1gma_1_1_paid_event_listener.html" target="_top" xlink:title="Listener to be invoked when ads have been estimated to earn money.">
<polygon fill="white" stroke="#666666" points="140.88,-32 14.62,-32 14.62,0 140.88,0 140.88,-32"/>
<text text-anchor="start" x="22.62" y="-18.5" font-family="Helvetica,sans-Serif" font-size="10.00">firebase::gma::PaidEvent</text>
<text text-anchor="middle" x="77.75" y="-6.5" font-family="Helvetica,sans-Serif" font-size="10.00">Listener</text>
</a>
</g>
</g>
<!-- Node4&#45;&gt;Node1 -->
<g id="edge3_Node000001_Node000004" class="edge">
<title>Node4&#45;&gt;Node1</title>
<g id="a_edge3_Node000001_Node000004"><a xlink:title=" ">
<path fill="none" stroke="#9a32cd" stroke-dasharray="5,2" d="M152.53,-27.84C190.08,-34.06 236.42,-42.04 277.75,-50 286.58,-51.7 295.98,-53.63 305.02,-55.54"/>
<polygon fill="#9a32cd" stroke="#9a32cd" points="153.1,-24.39 142.66,-26.21 151.96,-31.29 153.1,-24.39"/>
</a>
</g>
<text text-anchor="middle" x="225.62" y="-52.5" font-family="Helvetica,sans-Serif" font-size="10.00" fill="grey"> paid_event_listener_</text>
</g>
</g>
</svg>
