<?xml version="1.0" encoding="UTF-8" standalone="no"?>
<!DOCTYPE svg PUBLIC "-//W3C//DTD SVG 1.1//EN"
 "http://www.w3.org/Graphics/SVG/1.1/DTD/svg11.dtd">
<!-- Generated by graphviz version 12.1.2 (20240928.0832)
 -->
<!-- Title: FlutterDesktopTextureInfo Pages: 1 -->
<svg width="286pt" height="188pt"
 viewBox="0.00 0.00 286.00 188.00" xmlns="http://www.w3.org/2000/svg" xmlns:xlink="http://www.w3.org/1999/xlink">
<g id="graph0" class="graph" transform="scale(1 1) rotate(0) translate(4 184)">
<title>FlutterDesktopTextureInfo</title>
<!-- Node1 -->
<g id="Node000001" class="node">
<title>Node1</title>
<g id="a_Node000001"><a xlink:title=" ">
<polygon fill="#999999" stroke="#666666" points="201.5,-20 72.25,-20 72.25,0 201.5,0 201.5,-20"/>
<text text-anchor="middle" x="136.88" y="-6.5" font-family="Helvetica,sans-Serif" font-size="10.00">FlutterDesktopTextureInfo</text>
</a>
</g>
</g>
<!-- Node2 -->
<g id="Node000002" class="node">
<title>Node2</title>
<g id="a_Node000002"><a xlink:href="struct_flutter_desktop_pixel_buffer_texture_config.html" target="_top" xlink:title=" ">
<polygon fill="white" stroke="#bfbfbf" points="127.75,-100 0,-100 0,-68 127.75,-68 127.75,-100"/>
<text text-anchor="start" x="8" y="-86.5" font-family="Helvetica,sans-Serif" font-size="10.00">FlutterDesktopPixelBuffer</text>
<text text-anchor="middle" x="63.88" y="-74.5" font-family="Helvetica,sans-Serif" font-size="10.00">TextureConfig</text>
</a>
</g>
</g>
<!-- Node2&#45;&gt;Node1 -->
<g id="edge1_Node000001_Node000002" class="edge">
<title>Node2&#45;&gt;Node1</title>
<g id="a_edge1_Node000001_Node000002"><a xlink:title=" ">
<path fill="none" stroke="#9a32cd" stroke-dasharray="5,2" d="M78.22,-58.44C83,-51.39 88.69,-43.99 94.88,-38 101.97,-31.12 111.08,-25.02 119,-20.36"/>
<polygon fill="#9a32cd" stroke="#9a32cd" points="75.56,-56.1 73.13,-66.41 81.46,-59.87 75.56,-56.1"/>
</a>
</g>
<text text-anchor="middle" x="136.88" y="-40.5" font-family="Helvetica,sans-Serif" font-size="10.00" fill="grey"> pixel_buffer_config</text>
</g>
<!-- Node3 -->
<g id="Node000003" class="node">
<title>Node3</title>
<g id="a_Node000003"><a xlink:href="struct_flutter_desktop_pixel_buffer.html" target="_top" xlink:title=" ">
<polygon fill="white" stroke="#bfbfbf" points="127.75,-174 0,-174 0,-154 127.75,-154 127.75,-174"/>
<text text-anchor="middle" x="63.88" y="-160.5" font-family="Helvetica,sans-Serif" font-size="10.00">FlutterDesktopPixelBuffer</text>
</a>
</g>
</g>
<!-- Node3&#45;&gt;Node2 -->
<g id="edge2_Node000002_Node000003" class="edge">
<title>Node3&#45;&gt;Node2</title>
<g id="a_edge2_Node000002_Node000003"><a xlink:title=" ">
<path fill="none" stroke="#9a32cd" stroke-dasharray="5,2" d="M63.88,-142.51C63.88,-129.32 63.88,-112.47 63.88,-100.42"/>
<polygon fill="#9a32cd" stroke="#9a32cd" points="60.38,-142.23 63.88,-152.23 67.38,-142.23 60.38,-142.23"/>
</a>
</g>
<text text-anchor="middle" x="83.38" y="-120.5" font-family="Helvetica,sans-Serif" font-size="10.00" fill="grey"> callback</text>
</g>
<!-- Node4 -->
<g id="Node000004" class="node">
<title>Node4</title>
<g id="a_Node000004"><a xlink:href="struct_flutter_desktop_gpu_surface_texture_config.html" target="_top" xlink:title=" ">
<polygon fill="white" stroke="#bfbfbf" points="278,-100 145.75,-100 145.75,-68 278,-68 278,-100"/>
<text text-anchor="start" x="153.75" y="-86.5" font-family="Helvetica,sans-Serif" font-size="10.00">FlutterDesktopGpuSurface</text>
<text text-anchor="middle" x="211.88" y="-74.5" font-family="Helvetica,sans-Serif" font-size="10.00">TextureConfig</text>
</a>
</g>
</g>
<!-- Node4&#45;&gt;Node1 -->
<g id="edge3_Node000001_Node000004" class="edge">
<title>Node4&#45;&gt;Node1</title>
<g id="a_edge3_Node000001_Node000004"><a xlink:title=" ">
<path fill="none" stroke="#9a32cd" stroke-dasharray="5,2" d="M196.38,-58.48C191.29,-51.43 185.28,-44.02 178.88,-38 171.68,-31.23 162.56,-25.14 154.66,-20.46"/>
<polygon fill="#9a32cd" stroke="#9a32cd" points="193.31,-60.2 201.85,-66.47 199.09,-56.24 193.31,-60.2"/>
</a>
</g>
<text text-anchor="middle" x="233.12" y="-40.5" font-family="Helvetica,sans-Serif" font-size="10.00" fill="grey"> gpu_surface_config</text>
</g>
<!-- Node5 -->
<g id="Node000005" class="node">
<title>Node5</title>
<g id="a_Node000005"><a xlink:href="struct_flutter_desktop_gpu_surface_descriptor.html" target="_top" xlink:title=" ">
<polygon fill="white" stroke="#bfbfbf" points="278,-180 145.75,-180 145.75,-148 278,-148 278,-180"/>
<text text-anchor="start" x="153.75" y="-166.5" font-family="Helvetica,sans-Serif" font-size="10.00">FlutterDesktopGpuSurface</text>
<text text-anchor="middle" x="211.88" y="-154.5" font-family="Helvetica,sans-Serif" font-size="10.00">Descriptor</text>
</a>
</g>
</g>
<!-- Node5&#45;&gt;Node4 -->
<g id="edge4_Node000004_Node000005" class="edge">
<title>Node5&#45;&gt;Node4</title>
<g id="a_edge4_Node000004_Node000005"><a xlink:title=" ">
<path fill="none" stroke="#9a32cd" stroke-dasharray="5,2" d="M211.88,-136.37C211.88,-124.37 211.88,-110.63 211.88,-100.38"/>
<polygon fill="#9a32cd" stroke="#9a32cd" points="208.38,-136.08 211.88,-146.08 215.38,-136.08 208.38,-136.08"/>
</a>
</g>
<text text-anchor="middle" x="231.38" y="-120.5" font-family="Helvetica,sans-Serif" font-size="10.00" fill="grey"> callback</text>
</g>
</g>
</svg>
