<?xml version="1.0" encoding="UTF-8" standalone="no"?>
<!DOCTYPE svg PUBLIC "-//W3C//DTD SVG 1.1//EN"
 "http://www.w3.org/Graphics/SVG/1.1/DTD/svg11.dtd">
<!-- Generated by graphviz version 12.1.2 (20240928.0832)
 -->
<!-- Title: firebase::dynamic_links::DynamicLinkComponents Pages: 1 -->
<svg width="488pt" height="240pt"
 viewBox="0.00 0.00 487.75 240.00" xmlns="http://www.w3.org/2000/svg" xmlns:xlink="http://www.w3.org/1999/xlink">
<g id="graph0" class="graph" transform="scale(1 1) rotate(0) translate(4 236)">
<title>firebase::dynamic_links::DynamicLinkComponents</title>
<!-- Node1 -->
<g id="Node000001" class="node">
<title>Node1</title>
<g id="a_Node000001"><a xlink:title="The information needed to generate a Dynamic Link.">
<polygon fill="#999999" stroke="#666666" points="479.75,-132 345.25,-132 345.25,-100 479.75,-100 479.75,-132"/>
<text text-anchor="start" x="353.25" y="-118.5" font-family="Helvetica,sans-Serif" font-size="10.00">firebase::dynamic_links</text>
<text text-anchor="middle" x="412.5" y="-106.5" font-family="Helvetica,sans-Serif" font-size="10.00">::DynamicLinkComponents</text>
</a>
</g>
</g>
<!-- Node2 -->
<g id="Node000002" class="node">
<title>Node2</title>
<g id="a_Node000002"><a xlink:href="structfirebase_1_1dynamic__links_1_1_google_analytics_parameters.html" target="_top" xlink:title="Google Analytics Parameters.">
<polygon fill="white" stroke="#666666" points="161.5,-232 18,-232 18,-200 161.5,-200 161.5,-232"/>
<text text-anchor="start" x="26" y="-218.5" font-family="Helvetica,sans-Serif" font-size="10.00">firebase::dynamic_links</text>
<text text-anchor="middle" x="89.75" y="-206.5" font-family="Helvetica,sans-Serif" font-size="10.00">::GoogleAnalyticsParameters</text>
</a>
</g>
</g>
<!-- Node2&#45;&gt;Node1 -->
<g id="edge1_Node000001_Node000002" class="edge">
<title>Node2&#45;&gt;Node1</title>
<g id="a_edge1_Node000001_Node000002"><a xlink:title=" ">
<path fill="none" stroke="#9a32cd" stroke-dasharray="5,2" d="M173.2,-211.77C219.86,-207.1 278.46,-197.34 327.25,-177 352.92,-166.3 378.19,-146.4 394.26,-132.24"/>
<polygon fill="#9a32cd" stroke="#9a32cd" points="173.05,-208.27 163.42,-212.68 173.7,-215.24 173.05,-208.27"/>
</a>
</g>
<text text-anchor="middle" x="262.38" y="-210.94" font-family="Helvetica,sans-Serif" font-size="10.00" fill="grey"> google_analytics_parameters</text>
</g>
<!-- Node3 -->
<g id="Node000003" class="node">
<title>Node3</title>
<g id="a_Node000003"><a xlink:href="structfirebase_1_1dynamic__links_1_1_i_o_s_parameters.html" target="_top" xlink:title="iOS Parameters.">
<polygon fill="white" stroke="#666666" points="149.12,-182 30.38,-182 30.38,-150 149.12,-150 149.12,-182"/>
<text text-anchor="start" x="38.38" y="-168.5" font-family="Helvetica,sans-Serif" font-size="10.00">firebase::dynamic_links</text>
<text text-anchor="middle" x="89.75" y="-156.5" font-family="Helvetica,sans-Serif" font-size="10.00">::IOSParameters</text>
</a>
</g>
</g>
<!-- Node3&#45;&gt;Node1 -->
<g id="edge2_Node000001_Node000003" class="edge">
<title>Node3&#45;&gt;Node1</title>
<g id="a_edge2_Node000001_Node000003"><a xlink:title=" ">
<path fill="none" stroke="#9a32cd" stroke-dasharray="5,2" d="M160.99,-163.66C208.37,-161.06 272.07,-155.58 327.25,-144 340.83,-141.15 355.27,-136.85 368.29,-132.46"/>
<polygon fill="#9a32cd" stroke="#9a32cd" points="160.94,-160.16 151.13,-164.17 161.3,-167.15 160.94,-160.16"/>
</a>
</g>
<text text-anchor="middle" x="262.38" y="-163.61" font-family="Helvetica,sans-Serif" font-size="10.00" fill="grey"> ios_parameters</text>
</g>
<!-- Node4 -->
<g id="Node000004" class="node">
<title>Node4</title>
<g id="a_Node000004"><a xlink:href="structfirebase_1_1dynamic__links_1_1_i_tunes_connect_analytics_parameters.html" target="_top" xlink:title="iTunes Connect App Analytics Parameters.">
<polygon fill="white" stroke="#666666" points="179.5,-132 0,-132 0,-100 179.5,-100 179.5,-132"/>
<text text-anchor="start" x="8" y="-118.5" font-family="Helvetica,sans-Serif" font-size="10.00">firebase::dynamic_links</text>
<text text-anchor="middle" x="89.75" y="-106.5" font-family="Helvetica,sans-Serif" font-size="10.00">::ITunesConnectAnalyticsParameters</text>
</a>
</g>
</g>
<!-- Node4&#45;&gt;Node1 -->
<g id="edge3_Node000001_Node000004" class="edge">
<title>Node4&#45;&gt;Node1</title>
<g id="a_edge3_Node000001_Node000004"><a xlink:title=" ">
<path fill="none" stroke="#9a32cd" stroke-dasharray="5,2" d="M190.88,-116C241.01,-116 300.34,-116 344.83,-116"/>
<polygon fill="#9a32cd" stroke="#9a32cd" points="191.18,-112.5 181.18,-116 191.18,-119.5 191.18,-112.5"/>
</a>
</g>
<text text-anchor="start" x="205.75" y="-130.5" font-family="Helvetica,sans-Serif" font-size="10.00" fill="grey"> itunes_connect_analytics</text>
<text text-anchor="middle" x="262.38" y="-118.5" font-family="Helvetica,sans-Serif" font-size="10.00" fill="grey">_parameters</text>
</g>
<!-- Node5 -->
<g id="Node000005" class="node">
<title>Node5</title>
<g id="a_Node000005"><a xlink:href="structfirebase_1_1dynamic__links_1_1_android_parameters.html" target="_top" xlink:title="Android Parameters.">
<polygon fill="white" stroke="#666666" points="149.12,-82 30.38,-82 30.38,-50 149.12,-50 149.12,-82"/>
<text text-anchor="start" x="38.38" y="-68.5" font-family="Helvetica,sans-Serif" font-size="10.00">firebase::dynamic_links</text>
<text text-anchor="middle" x="89.75" y="-56.5" font-family="Helvetica,sans-Serif" font-size="10.00">::AndroidParameters</text>
</a>
</g>
</g>
<!-- Node5&#45;&gt;Node1 -->
<g id="edge4_Node000001_Node000005" class="edge">
<title>Node5&#45;&gt;Node1</title>
<g id="a_edge4_Node000001_Node000005"><a xlink:title=" ">
<path fill="none" stroke="#9a32cd" stroke-dasharray="5,2" d="M160.49,-75.19C207.66,-81.61 271.31,-90.67 327.25,-100 332.98,-100.96 338.91,-101.99 344.87,-103.06"/>
<polygon fill="#9a32cd" stroke="#9a32cd" points="161.06,-71.73 150.68,-73.86 160.12,-78.67 161.06,-71.73"/>
</a>
</g>
<text text-anchor="middle" x="262.38" y="-102.5" font-family="Helvetica,sans-Serif" font-size="10.00" fill="grey"> android_parameters</text>
</g>
<!-- Node6 -->
<g id="Node000006" class="node">
<title>Node6</title>
<g id="a_Node000006"><a xlink:href="structfirebase_1_1dynamic__links_1_1_social_meta_tag_parameters.html" target="_top" xlink:title="Social meta&#45;tag Parameters.">
<polygon fill="white" stroke="#666666" points="158.12,-32 21.38,-32 21.38,0 158.12,0 158.12,-32"/>
<text text-anchor="start" x="29.38" y="-18.5" font-family="Helvetica,sans-Serif" font-size="10.00">firebase::dynamic_links</text>
<text text-anchor="middle" x="89.75" y="-6.5" font-family="Helvetica,sans-Serif" font-size="10.00">::SocialMetaTagParameters</text>
</a>
</g>
</g>
<!-- Node6&#45;&gt;Node1 -->
<g id="edge5_Node000001_Node000006" class="edge">
<title>Node6&#45;&gt;Node1</title>
<g id="a_edge5_Node000001_Node000006"><a xlink:title=" ">
<path fill="none" stroke="#9a32cd" stroke-dasharray="5,2" d="M169.89,-24.95C216.81,-31.98 276.77,-44.04 327.25,-64 349.95,-72.98 373.39,-87.99 389.76,-99.59"/>
<polygon fill="#9a32cd" stroke="#9a32cd" points="170.46,-21.5 160.06,-23.53 169.46,-28.42 170.46,-21.5"/>
</a>
</g>
<text text-anchor="middle" x="262.38" y="-66.5" font-family="Helvetica,sans-Serif" font-size="10.00" fill="grey"> social_meta_tag_parameters</text>
</g>
</g>
</svg>
