<?xml version="1.0" encoding="UTF-8" standalone="no"?>
<!DOCTYPE svg PUBLIC "-//W3C//DTD SVG 1.1//EN"
 "http://www.w3.org/Graphics/SVG/1.1/DTD/svg11.dtd">
<!-- Generated by graphviz version 12.1.2 (20240928.0832)
 -->
<!-- Title: firebase::auth::AuthResult Pages: 1 -->
<svg width="328pt" height="188pt"
 viewBox="0.00 0.00 328.12 188.00" xmlns="http://www.w3.org/2000/svg" xmlns:xlink="http://www.w3.org/1999/xlink">
<g id="graph0" class="graph" transform="scale(1 1) rotate(0) translate(4 184)">
<title>firebase::auth::AuthResult</title>
<!-- Node1 -->
<g id="Node000001" class="node">
<title>Node1</title>
<g id="a_Node000001"><a xlink:title="The result of operations that can affect authentication state.">
<polygon fill="#999999" stroke="#666666" points="194.75,-20 64.75,-20 64.75,0 194.75,0 194.75,-20"/>
<text text-anchor="middle" x="129.75" y="-6.5" font-family="Helvetica,sans-Serif" font-size="10.00">firebase::auth::AuthResult</text>
</a>
</g>
</g>
<!-- Node2 -->
<g id="Node000002" class="node">
<title>Node2</title>
<g id="a_Node000002"><a xlink:href="structfirebase_1_1auth_1_1_additional_user_info.html" target="_top" xlink:title="Additional user data returned from an identity provider.">
<polygon fill="white" stroke="#666666" points="191.75,-100 67.75,-100 67.75,-68 191.75,-68 191.75,-100"/>
<text text-anchor="start" x="75.75" y="-86.5" font-family="Helvetica,sans-Serif" font-size="10.00">firebase::auth::Additional</text>
<text text-anchor="middle" x="129.75" y="-74.5" font-family="Helvetica,sans-Serif" font-size="10.00">UserInfo</text>
</a>
</g>
</g>
<!-- Node2&#45;&gt;Node1 -->
<g id="edge1_Node000001_Node000002" class="edge">
<title>Node2&#45;&gt;Node1</title>
<g id="a_edge1_Node000001_Node000002"><a xlink:title=" ">
<path fill="none" stroke="#9a32cd" stroke-dasharray="5,2" d="M129.75,-56.34C129.75,-43.7 129.75,-29.41 129.75,-20.31"/>
<polygon fill="#9a32cd" stroke="#9a32cd" points="126.25,-56.22 129.75,-66.22 133.25,-56.22 126.25,-56.22"/>
</a>
</g>
<text text-anchor="middle" x="174.38" y="-40.5" font-family="Helvetica,sans-Serif" font-size="10.00" fill="grey"> additional_user_info</text>
</g>
<!-- Node3 -->
<g id="Node000003" class="node">
<title>Node3</title>
<g id="a_Node000003"><a xlink:href="classfirebase_1_1auth_1_1_credential.html" target="_top" xlink:title="Authentication credentials for an authentication provider.">
<polygon fill="white" stroke="#666666" points="125.5,-174 0,-174 0,-154 125.5,-154 125.5,-174"/>
<text text-anchor="middle" x="62.75" y="-160.5" font-family="Helvetica,sans-Serif" font-size="10.00">firebase::auth::Credential</text>
</a>
</g>
</g>
<!-- Node3&#45;&gt;Node1 -->
<g id="edge3_Node000001_Node000003" class="edge">
<title>Node3&#45;&gt;Node1</title>
<g id="a_edge3_Node000001_Node000003"><a xlink:title=" ">
<path fill="none" stroke="#9a32cd" stroke-dasharray="5,2" d="M42.94,-145.86C23.02,-126.48 -2.57,-94.21 13.75,-68 29.41,-42.86 59.76,-28.49 85.49,-20.47"/>
<polygon fill="#9a32cd" stroke="#9a32cd" points="40.43,-148.3 50.14,-152.53 45.18,-143.17 40.43,-148.3"/>
</a>
</g>
<text text-anchor="middle" x="36.25" y="-80.5" font-family="Helvetica,sans-Serif" font-size="10.00" fill="grey"> credential</text>
</g>
<!-- Node3&#45;&gt;Node2 -->
<g id="edge2_Node000002_Node000003" class="edge">
<title>Node3&#45;&gt;Node2</title>
<g id="a_edge2_Node000002_Node000003"><a xlink:title=" ">
<path fill="none" stroke="#9a32cd" stroke-dasharray="5,2" d="M77.95,-145.3C89.57,-131.78 105.41,-113.34 116.51,-100.42"/>
<polygon fill="#9a32cd" stroke="#9a32cd" points="75.55,-142.73 71.69,-152.6 80.86,-147.29 75.55,-142.73"/>
</a>
</g>
<text text-anchor="middle" x="142.64" y="-120.5" font-family="Helvetica,sans-Serif" font-size="10.00" fill="grey"> updated_credential</text>
</g>
<!-- Node4 -->
<g id="Node000004" class="node">
<title>Node4</title>
<g id="a_Node000004"><a xlink:href="classfirebase_1_1auth_1_1_user.html" target="_top" xlink:title="Firebase user account object.">
<polygon fill="white" stroke="#666666" points="311.88,-94 209.62,-94 209.62,-74 311.88,-74 311.88,-94"/>
<text text-anchor="middle" x="260.75" y="-80.5" font-family="Helvetica,sans-Serif" font-size="10.00">firebase::auth::User</text>
</a>
</g>
</g>
<!-- Node4&#45;&gt;Node1 -->
<g id="edge4_Node000001_Node000004" class="edge">
<title>Node4&#45;&gt;Node1</title>
<g id="a_edge4_Node000001_Node000004"><a xlink:title=" ">
<path fill="none" stroke="#9a32cd" stroke-dasharray="5,2" d="M248.78,-64.19C242.12,-55.09 233.09,-44.72 222.75,-38 210.62,-30.12 196.15,-24.49 182.27,-20.49"/>
<polygon fill="#9a32cd" stroke="#9a32cd" points="245.86,-66.11 254.39,-72.4 251.64,-62.17 245.86,-66.11"/>
</a>
</g>
<text text-anchor="middle" x="247.15" y="-40.5" font-family="Helvetica,sans-Serif" font-size="10.00" fill="grey"> user</text>
</g>
<!-- Node5 -->
<g id="Node000005" class="node">
<title>Node5</title>
<g id="a_Node000005"><a xlink:href="classfirebase_1_1auth_1_1_user_info_interface.html" target="_top" xlink:title="Interface implemented by each identity provider.">
<polygon fill="white" stroke="#666666" points="320.12,-180 201.38,-180 201.38,-148 320.12,-148 320.12,-180"/>
<text text-anchor="start" x="209.38" y="-166.5" font-family="Helvetica,sans-Serif" font-size="10.00">firebase::auth::UserInfo</text>
<text text-anchor="middle" x="260.75" y="-154.5" font-family="Helvetica,sans-Serif" font-size="10.00">Interface</text>
</a>
</g>
</g>
<!-- Node5&#45;&gt;Node4 -->
<g id="edge5_Node000004_Node000005" class="edge">
<title>Node5&#45;&gt;Node4</title>
<g id="a_edge5_Node000004_Node000005"><a xlink:title=" ">
<path fill="none" stroke="#63b8ff" d="M260.75,-136.23C260.75,-121.77 260.75,-104.81 260.75,-94.49"/>
<polygon fill="#63b8ff" stroke="#63b8ff" points="257.25,-136.08 260.75,-146.08 264.25,-136.08 257.25,-136.08"/>
</a>
</g>
</g>
</g>
</svg>
